<?xml version="1.0" standalone="no"?><!DOCTYPE svg PUBLIC "-//W3C//DTD SVG 1.1//EN" "http://www.w3.org/Graphics/SVG/1.1/DTD/svg11.dtd"><svg class="icon" width="200px" height="200.00px" viewBox="0 0 1024 1024" version="1.1" xmlns="http://www.w3.org/2000/svg"><path d="M225.173333 149.397333L227.264 149.333333c2.261333 0.042667 4.181333 0.213333 6.101333 0.597334l2.986667 0.725333 3.968 0.938667c23.893333 6.186667 70.186667 26.645333 97.792 45.653333a363.754667 363.754667 0 0 1 173.653333-44.458667c200.106667 0 362.901333 161.92 362.901334 360.96C874.666667 712.746667 711.872 874.666667 511.786667 874.666667 308.544 874.666667 149.333333 712.256 149.333333 504.938667c0-15.146667 7.530667-82.026667 14.186667-100.778667 1.813333-8.661333 12.565333-51.413333 53.717333-103.509333 1.493333-20.202667 3.626667-71.786667-14.208-108.672a33.984 33.984 0 0 1-2.453333-9.813334l-0.256-3.072-0.298667-2.666666a25.344 25.344 0 0 1 4.821334-15.744 27.306667 27.306667 0 0 1 19.370666-11.264l0.96-0.021334 2.090667-0.064zM512 213.333333c-66.410667 0-127.786667 21.674667-177.344 58.304-9.344-6.677333-18.773333-13.098667-28.266667-19.285333-11.84-7.68-20.906667-13.077333-27.2-16.192 2.197333 12.714667 3.285333 23.189333 3.285334 31.445333 0 7.701333-0.96 25.301333-2.858667 52.757334l-0.298667 4.373333A297.408 297.408 0 0 0 213.333333 512c0 164.949333 133.717333 298.666667 298.666667 298.666667s298.666667-133.717333 298.666667-298.666667-133.717333-298.666667-298.666667-298.666667z m-10.666667 170.666667a32 32 0 0 1 32 32v64a32 32 0 0 1-64 0v-64a32 32 0 0 1 32-32z m170.666667 0a32 32 0 0 1 32 32v64a32 32 0 0 1-64 0v-64a32 32 0 0 1 32-32zM263.765333 170.88c0.085333 0.789333 0.149333 1.557333 0.192 2.346667l0.192 1.429333-0.213333-3.413333-0.170667-0.362667z" /></svg>
