<?xml version="1.0" standalone="no"?><!DOCTYPE svg PUBLIC "-//W3C//DTD SVG 1.1//EN" "http://www.w3.org/Graphics/SVG/1.1/DTD/svg11.dtd"><svg t="1588565540804" class="icon" viewBox="0 0 1024 1024" version="1.1" xmlns="http://www.w3.org/2000/svg" p-id="1099" xmlns:xlink="http://www.w3.org/1999/xlink" width="200" height="200"><defs><style type="text/css"></style></defs><path d="M512.47 930.498c-111.863 0-217.030-43.561-296.129-122.661-79.099-79.099-122.661-184.265-122.661-296.129 0-111.862 43.562-217.030 122.661-296.129 79.1-79.1 184.267-122.661 296.129-122.661s217.030 43.561 296.129 122.661c79.1 79.1 122.661 184.267 122.661 296.129 0 111.864-43.561 217.030-122.661 296.129-79.099 79.1-184.267 122.661-296.129 122.661zM512.47 131.339c-209.736 0-380.369 170.632-380.369 380.369s170.633 380.369 380.369 380.369c209.736 0 380.37-170.632 380.37-380.369s-170.632-380.369-380.37-380.369zM510.267 759.457c-16.975 0-30.699-13.761-30.699-30.737v-272.79c0-16.976 13.723-30.737 30.699-30.737 16.975 0 30.699 13.761 30.699 30.737v272.79c0 16.975-13.723 30.737-30.699 30.737zM469.135 309.93c0 0 0 0 0 0 0 23.341 18.922 42.263 42.263 42.263 23.341 0 42.263-18.922 42.263-42.263 0 0 0 0 0 0 0 0 0 0 0 0 0-23.341-18.922-42.263-42.263-42.263-23.341 0-42.263 18.922-42.263 42.263 0 0 0 0 0 0z" p-id="1100"></path></svg>