<?xml version="1.0" standalone="no"?><!DOCTYPE svg PUBLIC "-//W3C//DTD SVG 1.1//EN" "http://www.w3.org/Graphics/SVG/1.1/DTD/svg11.dtd"><svg class="icon" width="200px" height="200.00px" viewBox="0 0 1024 1024" version="1.1" xmlns="http://www.w3.org/2000/svg"><path d="M817.365333 213.333333a64 64 0 0 1 64 64v469.333334a64 64 0 0 1-64 64h-597.333333a64 64 0 0 1-64-64V277.333333a64 64 0 0 1 64-64h597.333333z m0 64h-597.333333v469.333334h597.333333V277.333333zM746.666667 371.114667v63.957333c-100.608-1.450667-163.306667 30.293333-193.493334 94.229333l-2.304 5.12-2.858666 6.357334c-44.010667 95.146667-129.088 142.464-249.322667 140.842666v-64c96.234667 1.6 157.930667-32.384 190.933333-103.04l2.538667-5.632 2.624-5.845333c41.664-89.664 127.488-133.333333 251.882667-131.989333z m-397.696-17.237334a42.666667 42.666667 0 1 1 0 85.333334 42.666667 42.666667 0 0 1 0-85.333334z" /></svg>
